<svg width="38" height="39" viewBox="0 0 38 39" fill="none" xmlns="http://www.w3.org/2000/svg">
<path d="M33.9072 24.5901C29.4373 27.77 23.5743 28.1232 18.8047 25.6333M4.09139 14.0099C8.57214 10.8223 14.4527 10.4751 19.2287 12.9849M24.341 22.6636C28.9116 19.7829 31.5581 14.509 31.0342 9.02769M13.5873 15.9809C9.05968 18.8711 6.44287 24.119 6.96408 29.5723M24.5836 16.3503C24.373 10.9535 21.1289 6.02668 16.121 3.73936M13.4191 22.3489C13.6653 27.7069 16.9003 32.5874 21.8775 34.8607M30.1952 8.10415C36.3785 14.2875 36.3785 24.3126 30.1952 30.4958C24.0119 36.6791 13.9868 36.6791 7.80349 30.4958C1.62019 24.3125 1.62019 14.2874 7.80349 8.10415C13.9868 1.92085 24.0119 1.92085 30.1952 8.10415ZM23.4777 14.8217C25.951 17.295 25.951 21.305 23.4777 23.7784C21.0044 26.2517 16.9943 26.2517 14.521 23.7784C12.0477 21.305 12.0477 17.295 14.521 14.8217C16.9943 12.3483 21.0044 12.3483 23.4777 14.8217Z" stroke="#15151F" stroke-width="2.5" stroke-linecap="round" stroke-linejoin="round"/>
</svg>
