<svg width="40" height="41" viewBox="0 0 40 41" fill="none" xmlns="http://www.w3.org/2000/svg">
<path d="M40 20.3C40 9.25445 31.0456 0.300049 20 0.300049C8.9544 0.300049 0 9.25445 0 20.3C0 29.6792 6.4576 37.5496 15.1688 39.7113V26.4121H11.0448V20.3H15.1688V17.6664C15.1688 10.8592 18.2496 7.70405 24.9328 7.70405C26.2 7.70405 28.3864 7.95285 29.2808 8.20085V13.7408C28.8088 13.6912 27.9888 13.6664 26.9704 13.6664C23.6912 13.6664 22.424 14.9088 22.424 18.1384V20.3H28.9568L27.8344 26.4121H22.424V40.1536C32.3256 38.9576 40 30.5256 40 20.3Z" fill="#0866FF"/>
<path d="M27.8335 26.4121L28.9559 20.3001H22.4231V18.1385C22.4231 14.9089 23.6903 13.6665 26.9695 13.6665C27.9879 13.6665 28.8079 13.6913 29.2799 13.7409V8.2009C28.3855 7.9521 26.1991 7.7041 24.9319 7.7041C18.2487 7.7041 15.1679 10.8593 15.1679 17.6665V20.3001H11.0439V26.4121H15.1679V39.7113C16.7151 40.0953 18.3335 40.3001 19.9991 40.3001C20.8191 40.3001 21.6279 40.2497 22.4223 40.1537V26.4121H27.8335Z" fill="white"/>
</svg>
