<svg width="72" height="72" viewBox="0 0 72 72" fill="none" xmlns="http://www.w3.org/2000/svg">
<path fill-rule="evenodd" clip-rule="evenodd" d="M34.4435 1.17868C35.6121 0.873258 37.4345 0.967053 38.7524 1.40137C39.5853 1.67587 41.3044 2.59651 45.0818 4.79366C46.3835 5.55072 48.2133 6.63908 48.7427 6.97012C49.7923 7.6264 52.9931 9.49923 53.1952 9.57569C53.2994 9.6154 53.7923 9.9106 54.292 10.2307C54.7924 10.5511 56.5118 11.5905 58.1128 12.5405C60.9975 14.2523 61.4846 14.5396 63.5593 15.7459C65.7674 17.0298 67.4262 19.2964 67.8583 21.6234C67.9766 22.2612 68.0235 27.8224 67.9889 37.0813C67.936 51.2823 67.9282 51.5621 67.5482 52.6677C66.9727 54.3423 66.3431 55.2905 65.0755 56.3915C64.8597 56.579 64.4762 56.849 63.9287 57.2115C63.9141 57.2212 63.9164 57.2425 63.9037 57.2547C63.8391 57.3153 63.4315 57.5634 62.7873 57.9455C60.3393 59.4804 56.066 61.9873 49.8346 65.5363C48.0834 66.5335 45.5125 68.0171 44.1221 68.8326C39.3481 71.6329 38.3605 72.023 36.0985 71.999C34.1226 71.978 33.019 71.5808 29.7691 69.7153C28.5949 69.0411 27.597 68.488 27.5445 68.4832C27.5001 68.4832 27.0321 68.2118 26.5048 67.8801C25.9776 67.5482 25.4227 67.2194 25.2726 67.1487C25.1225 67.078 24.8362 66.9195 24.636 66.7976C24.4357 66.6754 23.6988 66.2503 22.999 65.8532C22.2993 65.456 21.5626 65.0327 21.3619 64.9121C21.1613 64.7914 20.8739 64.6331 20.7238 64.5594C20.5736 64.4857 19.8783 64.0898 19.1781 63.68C18.4777 63.27 17.781 62.8765 17.6309 62.8071C17.4806 62.7376 17.113 62.5234 16.8132 62.3309C16.2383 61.9615 15.9216 61.7767 11.9918 59.527C7.14477 56.7522 6.18619 55.9736 5.16623 53.9745C4.63927 52.9414 4.18476 51.2337 4.2049 50.3644C4.20854 50.2149 4.15056 43.7328 4.07596 35.9598C3.92769 20.5254 3.89338 21.1654 4.96874 19.052C5.69758 17.6193 7.17487 16.3108 9.76723 14.7998C16.6891 10.7652 30.8365 2.72626 32.0786 2.12144C32.8695 1.73623 33.9336 1.31185 34.4435 1.17868Z" fill="#171717"/>
<path d="M34.6328 1.9043C35.6419 1.64057 37.3162 1.71742 38.5176 2.11328C38.8656 2.22799 39.4529 2.49796 40.459 3.03711C41.453 3.56975 42.8178 4.34466 44.7051 5.44238C46.0064 6.1992 47.8264 7.28235 48.3447 7.60645C48.8798 7.94102 49.9515 8.57787 50.9082 9.1377C51.3878 9.41831 51.8422 9.68141 52.1904 9.87988C52.3642 9.97894 52.5139 10.0634 52.6279 10.126C52.6701 10.1491 52.7234 10.1792 52.7773 10.207L52.9297 10.2773C52.8964 10.2647 52.8981 10.2615 52.9756 10.3047C53.035 10.3378 53.1144 10.3843 53.21 10.4414L53.8877 10.8623C54.4008 11.1908 56.1317 12.2369 57.7305 13.1855C60.6159 14.8978 61.1054 15.1868 63.1826 16.3945C65.0916 17.5046 66.5411 19.4096 67.0352 21.3682L67.1211 21.7607C67.1215 21.763 67.1231 21.7712 67.125 21.7871C67.1273 21.8064 67.1299 21.8329 67.1328 21.8662C67.1387 21.933 67.1444 22.0212 67.1504 22.1318C67.1624 22.3533 67.1734 22.6517 67.1836 23.0264C67.2039 23.7752 67.2194 24.8142 67.2305 26.126C67.2526 28.7488 67.2565 32.4502 67.2393 37.0781C67.2128 44.1844 67.1973 47.7922 67.1416 49.7637C67.0862 51.7223 66.9918 51.979 66.8389 52.4238C66.3038 53.9807 65.7463 54.8156 64.584 55.8252C64.4107 55.9757 64.067 56.2202 63.5146 56.5859C63.4524 56.6272 63.4017 56.6731 63.3613 56.7188C63.3144 56.7493 63.2507 56.7905 63.1689 56.8408C62.9842 56.9546 62.7257 57.1101 62.4043 57.3008L62.3965 57.3047L62.3887 57.3096C59.9556 58.8352 55.6951 61.336 49.4639 64.8848C47.7106 65.8833 45.1359 67.368 43.7422 68.1855C41.3447 69.5918 39.9551 70.358 38.8926 70.7773C37.879 71.1773 37.1679 71.2603 36.1064 71.249C35.182 71.2392 34.4986 71.144 33.666 70.8438C32.8049 70.5332 31.767 69.9969 30.1426 69.0645C29.5533 68.7261 29.0066 68.4179 28.5996 68.1924C28.3966 68.0799 28.2253 67.9864 28.0996 67.9199C28.0377 67.8872 27.9818 67.8581 27.9365 67.8359C27.9148 67.8253 27.8877 67.8125 27.8604 67.8008C27.8472 67.7951 27.8248 67.7864 27.7988 67.7773C27.798 67.7771 27.7968 67.7761 27.7949 67.7754C27.7923 67.7741 27.7892 67.7731 27.7861 67.7715C27.7414 67.748 27.6725 67.7097 27.582 67.6572L26.9043 67.2451C26.3888 66.9206 25.7919 66.5639 25.5918 66.4697C25.5333 66.4422 25.439 66.3928 25.3359 66.3359L25.0264 66.1572C24.92 66.0924 24.6801 65.9525 24.3799 65.7793L23.3691 65.2012C22.6668 64.8024 21.9389 64.3843 21.748 64.2695C21.5342 64.141 21.2283 63.971 21.0547 63.8857H21.0537C20.9342 63.8271 20.2688 63.4501 19.5566 63.0332C18.8728 62.6329 18.1369 62.2145 17.9453 62.126H17.9443C17.8423 62.0784 17.5134 61.8894 17.2188 61.7002C16.6231 61.3174 16.2829 61.1193 12.3643 58.876C9.93198 57.4836 8.53481 56.6243 7.61719 55.8779C6.73958 55.1641 6.30573 54.5584 5.83398 53.6338C5.60133 53.1776 5.37289 52.5453 5.20508 51.915C5.03419 51.2732 4.94649 50.7091 4.9541 50.3809C4.95774 50.1744 4.90038 43.6846 4.82617 35.9521C4.75185 28.2159 4.7068 24.5527 4.8125 22.5498C4.86493 21.5565 4.95272 21.0264 5.07227 20.6338C5.19373 20.235 5.35219 19.9517 5.63672 19.3926L5.6377 19.3916C6.26565 18.1577 7.58533 16.9399 10.1445 15.4482C17.0811 11.4051 31.1972 3.38509 32.4072 2.7959C33.1789 2.42004 34.1919 2.01948 34.6328 1.9043ZM27.6328 67.7393C27.6707 67.7438 27.6992 67.7497 27.7129 67.7529C27.7156 67.7536 27.7182 67.7542 27.7207 67.7549C27.6956 67.7489 27.6657 67.7432 27.6328 67.7393Z" stroke="url(#paint0_radial_8837_16358)" stroke-opacity="0.3" stroke-width="1.5"/>
<path d="M34.6328 1.9043C35.6419 1.64057 37.3162 1.71742 38.5176 2.11328C38.8656 2.22799 39.4529 2.49796 40.459 3.03711C41.453 3.56975 42.8178 4.34466 44.7051 5.44238C46.0064 6.1992 47.8264 7.28235 48.3447 7.60645C48.8798 7.94102 49.9515 8.57787 50.9082 9.1377C51.3878 9.41831 51.8422 9.68141 52.1904 9.87988C52.3642 9.97894 52.5139 10.0634 52.6279 10.126C52.6701 10.1491 52.7234 10.1792 52.7773 10.207L52.9297 10.2773C52.8964 10.2647 52.8981 10.2615 52.9756 10.3047C53.035 10.3378 53.1144 10.3843 53.21 10.4414L53.8877 10.8623C54.4008 11.1908 56.1317 12.2369 57.7305 13.1855C60.6159 14.8978 61.1054 15.1868 63.1826 16.3945C65.0916 17.5046 66.5411 19.4096 67.0352 21.3682L67.1211 21.7607C67.1215 21.763 67.1231 21.7712 67.125 21.7871C67.1273 21.8064 67.1299 21.8329 67.1328 21.8662C67.1387 21.933 67.1444 22.0212 67.1504 22.1318C67.1624 22.3533 67.1734 22.6517 67.1836 23.0264C67.2039 23.7752 67.2194 24.8142 67.2305 26.126C67.2526 28.7488 67.2565 32.4502 67.2393 37.0781C67.2128 44.1844 67.1973 47.7922 67.1416 49.7637C67.0862 51.7223 66.9918 51.979 66.8389 52.4238C66.3038 53.9807 65.7463 54.8156 64.584 55.8252C64.4107 55.9757 64.067 56.2202 63.5146 56.5859C63.4524 56.6272 63.4017 56.6731 63.3613 56.7188C63.3144 56.7493 63.2507 56.7905 63.1689 56.8408C62.9842 56.9546 62.7257 57.1101 62.4043 57.3008L62.3965 57.3047L62.3887 57.3096C59.9556 58.8352 55.6951 61.336 49.4639 64.8848C47.7106 65.8833 45.1359 67.368 43.7422 68.1855C41.3447 69.5918 39.9551 70.358 38.8926 70.7773C37.879 71.1773 37.1679 71.2603 36.1064 71.249C35.182 71.2392 34.4986 71.144 33.666 70.8438C32.8049 70.5332 31.767 69.9969 30.1426 69.0645C29.5533 68.7261 29.0066 68.4179 28.5996 68.1924C28.3966 68.0799 28.2253 67.9864 28.0996 67.9199C28.0377 67.8872 27.9818 67.8581 27.9365 67.8359C27.9148 67.8253 27.8877 67.8125 27.8604 67.8008C27.8472 67.7951 27.8248 67.7864 27.7988 67.7773C27.798 67.7771 27.7968 67.7761 27.7949 67.7754C27.7923 67.7741 27.7892 67.7731 27.7861 67.7715C27.7414 67.748 27.6725 67.7097 27.582 67.6572L26.9043 67.2451C26.3888 66.9206 25.7919 66.5639 25.5918 66.4697C25.5333 66.4422 25.439 66.3928 25.3359 66.3359L25.0264 66.1572C24.92 66.0924 24.6801 65.9525 24.3799 65.7793L23.3691 65.2012C22.6668 64.8024 21.9389 64.3843 21.748 64.2695C21.5342 64.141 21.2283 63.971 21.0547 63.8857H21.0537C20.9342 63.8271 20.2688 63.4501 19.5566 63.0332C18.8728 62.6329 18.1369 62.2145 17.9453 62.126H17.9443C17.8423 62.0784 17.5134 61.8894 17.2188 61.7002C16.6231 61.3174 16.2829 61.1193 12.3643 58.876C9.93198 57.4836 8.53481 56.6243 7.61719 55.8779C6.73958 55.1641 6.30573 54.5584 5.83398 53.6338C5.60133 53.1776 5.37289 52.5453 5.20508 51.915C5.03419 51.2732 4.94649 50.7091 4.9541 50.3809C4.95774 50.1744 4.90038 43.6846 4.82617 35.9521C4.75185 28.2159 4.7068 24.5527 4.8125 22.5498C4.86493 21.5565 4.95272 21.0264 5.07227 20.6338C5.19373 20.235 5.35219 19.9517 5.63672 19.3926L5.6377 19.3916C6.26565 18.1577 7.58533 16.9399 10.1445 15.4482C17.0811 11.4051 31.1972 3.38509 32.4072 2.7959C33.1789 2.42004 34.1919 2.01948 34.6328 1.9043ZM27.6328 67.7393C27.6707 67.7438 27.6992 67.7497 27.7129 67.7529C27.7156 67.7536 27.7182 67.7542 27.7207 67.7549C27.6956 67.7489 27.6657 67.7432 27.6328 67.7393Z" stroke="#FEB722" stroke-opacity="0.06" stroke-width="1.5"/>
<path d="M28.5 46V41M28.5 31V26M26 28.5H31M26 43.5H31M37 27L35.2658 31.5089C34.9838 32.2421 34.8428 32.6087 34.6235 32.9171C34.4292 33.1904 34.1904 33.4292 33.9171 33.6235C33.6087 33.8428 33.2421 33.9838 32.5089 34.2658L28 36L32.5089 37.7342C33.2421 38.0162 33.6087 38.1572 33.9171 38.3765C34.1904 38.5708 34.4292 38.8096 34.6235 39.0829C34.8428 39.3913 34.9838 39.7579 35.2658 40.4911L37 45L38.7342 40.4911C39.0162 39.7579 39.1572 39.3913 39.3765 39.0829C39.5708 38.8096 39.8096 38.5708 40.0829 38.3765C40.3913 38.1572 40.7579 38.0162 41.4911 37.7342L46 36L41.4911 34.2658C40.7579 33.9838 40.3913 33.8428 40.0829 33.6235C39.8096 33.4292 39.5708 33.1904 39.3765 32.9171C39.1572 32.6087 39.0162 32.2421 38.7342 31.5089L37 27Z" stroke="#FEB722" stroke-width="2" stroke-linecap="round" stroke-linejoin="round"/>
<defs>
<radialGradient id="paint0_radial_8837_16358" cx="0" cy="0" r="1" gradientTransform="matrix(12.2353 29.9531 -27 137.909 23.7647 42.0469)" gradientUnits="userSpaceOnUse">
<stop stop-color="#FEB722"/>
<stop offset="1" stop-color="#FEB722" stop-opacity="0"/>
</radialGradient>
</defs>
</svg>
