<svg width="40" height="41" viewBox="0 0 40 41" fill="none" xmlns="http://www.w3.org/2000/svg">
<g clip-path="url(#clip0_146_4814)">
<path d="M20 40.3C8.956 40.3 0 31.344 0 20.3C0 9.25605 8.956 0.300049 20 0.300049C31.044 0.300049 40 9.25605 40 20.3C40 31.344 31.044 40.3 20 40.3Z" fill="url(#paint0_linear_146_4814)"/>
<path d="M19.9997 9.10807C23.6437 9.10807 24.0758 9.12007 25.5158 9.18807C26.8477 9.24807 27.5717 9.47207 28.0517 9.66007C28.6877 9.90807 29.1438 10.2041 29.6198 10.6801C30.0958 11.1561 30.3918 11.6121 30.6397 12.2481C30.8278 12.7281 31.0477 13.4521 31.1117 14.7841C31.1757 16.2241 31.1917 16.6561 31.1917 20.3001C31.1917 23.9441 31.1797 24.3761 31.1117 25.8161C31.0517 27.1481 30.8278 27.8721 30.6397 28.3521C30.3918 28.9881 30.0958 29.4441 29.6198 29.9201C29.1438 30.3961 28.6877 30.6921 28.0517 30.9401C27.5717 31.1281 26.8477 31.3481 25.5158 31.4121C24.0758 31.4761 23.6437 31.4921 19.9997 31.4921C16.3557 31.4921 15.9237 31.4801 14.4837 31.4121C13.1518 31.3521 12.4278 31.1281 11.9478 30.9401C11.3117 30.6921 10.8557 30.3961 10.3797 29.9201C9.90375 29.4441 9.60775 28.9881 9.35975 28.3521C9.17175 27.8721 8.95175 27.1481 8.88775 25.8161C8.82375 24.3761 8.80775 23.9441 8.80775 20.3001C8.80775 16.6561 8.81975 16.2241 8.88775 14.7841C8.94775 13.4521 9.17175 12.7281 9.35975 12.2481C9.60775 11.6121 9.90375 11.1561 10.3797 10.6801C10.8557 10.2041 11.3117 9.90807 11.9478 9.66007C12.4278 9.47207 13.1518 9.25207 14.4837 9.18807C15.9237 9.12007 16.3557 9.10807 19.9997 9.10807ZM19.9997 6.64807C16.2917 6.64807 15.8277 6.66407 14.3717 6.73207C12.9197 6.80007 11.9277 7.02807 11.0557 7.36807C10.1597 7.71207 9.39575 8.18007 8.63975 8.94007C7.87975 9.70007 7.41575 10.4601 7.06375 11.3601C6.72775 12.2281 6.49575 13.2201 6.42775 14.6761C6.35975 16.1321 6.34375 16.5961 6.34375 20.3041C6.34375 24.0121 6.35975 24.4761 6.42775 25.9321C6.49575 27.3841 6.72375 28.3761 7.06375 29.2481C7.41175 30.1401 7.87975 30.9041 8.63975 31.6601C9.39975 32.4201 10.1597 32.8841 11.0597 33.2361C11.9277 33.5721 12.9197 33.8041 14.3757 33.8721C15.8317 33.9401 16.2957 33.9561 20.0037 33.9561C23.7118 33.9561 24.1757 33.9401 25.6317 33.8721C27.0837 33.8041 28.0757 33.5761 28.9477 33.2361C29.8397 32.8881 30.6038 32.4201 31.3598 31.6601C32.1198 30.9001 32.5838 30.1401 32.9358 29.2401C33.2718 28.3721 33.5037 27.3801 33.5717 25.9241C33.6397 24.4681 33.6558 24.0041 33.6558 20.2961C33.6558 16.5881 33.6397 16.1241 33.5717 14.6681C33.5037 13.2161 33.2758 12.2241 32.9358 11.3521C32.5878 10.4601 32.1198 9.69607 31.3598 8.94007C30.5998 8.18007 29.8398 7.71607 28.9398 7.36407C28.0718 7.02807 27.0797 6.79607 25.6237 6.72807C24.1717 6.66407 23.7077 6.64807 19.9997 6.64807Z" fill="white"/>
<path d="M19.9993 13.2881C16.1273 13.2881 12.9873 16.4281 12.9873 20.3001C12.9873 24.1721 16.1273 27.3121 19.9993 27.3121C23.8713 27.3121 27.0113 24.1721 27.0113 20.3001C27.0113 16.4281 23.8713 13.2881 19.9993 13.2881ZM19.9993 24.8521C17.4873 24.8521 15.4473 22.8161 15.4473 20.3001C15.4473 17.7841 17.4873 15.7481 19.9993 15.7481C22.5113 15.7481 24.5513 17.7841 24.5513 20.3001C24.5513 22.8161 22.5113 24.8521 19.9993 24.8521Z" fill="white"/>
<path d="M27.2875 14.6521C28.1932 14.6521 28.9275 13.9178 28.9275 13.0121C28.9275 12.1063 28.1932 11.3721 27.2875 11.3721C26.3817 11.3721 25.6475 12.1063 25.6475 13.0121C25.6475 13.9178 26.3817 14.6521 27.2875 14.6521Z" fill="white"/>
</g>
<defs>
<linearGradient id="paint0_linear_146_4814" x1="5.85786" y1="34.4422" x2="34.1421" y2="6.15791" gradientUnits="userSpaceOnUse">
<stop stop-color="#FFD521"/>
<stop offset="0.0551048" stop-color="#FFD020"/>
<stop offset="0.1241" stop-color="#FEC01E"/>
<stop offset="0.2004" stop-color="#FCA71B"/>
<stop offset="0.2821" stop-color="#FA8316"/>
<stop offset="0.3681" stop-color="#F85510"/>
<stop offset="0.4563" stop-color="#F51E09"/>
<stop offset="0.5" stop-color="#F30005"/>
<stop offset="0.5035" stop-color="#F20007"/>
<stop offset="0.5966" stop-color="#E1003B"/>
<stop offset="0.6879" stop-color="#D30067"/>
<stop offset="0.7757" stop-color="#C70088"/>
<stop offset="0.8589" stop-color="#BF00A0"/>
<stop offset="0.9357" stop-color="#BB00AF"/>
<stop offset="1" stop-color="#B900B4"/>
</linearGradient>
<clipPath id="clip0_146_4814">
<rect width="40" height="40" fill="white" transform="translate(0 0.300049)"/>
</clipPath>
</defs>
</svg>
