<svg width="38" height="39" viewBox="0 0 38 39" fill="none" xmlns="http://www.w3.org/2000/svg">
<path d="M32.4583 11.8232L19 19.3001M19 19.3001L5.54161 11.8232M19 19.3001L19 34.3418M33.25 25.7261V12.8741C33.25 12.3315 33.25 12.0603 33.1701 11.8183C33.0994 11.6043 32.9838 11.4079 32.831 11.2421C32.6583 11.0547 32.4212 10.923 31.947 10.6595L20.2303 4.15026C19.7813 3.9008 19.5567 3.77606 19.319 3.72716C19.1085 3.68388 18.8915 3.68388 18.681 3.72716C18.4433 3.77606 18.2187 3.9008 17.7697 4.15027L6.05304 10.6595C5.57879 10.923 5.34167 11.0547 5.169 11.2421C5.01625 11.4079 4.90065 11.6043 4.82993 11.8184C4.75 12.0603 4.75 12.3315 4.75 12.8741V25.7261C4.75 26.2687 4.75 26.5399 4.82993 26.7819C4.90065 26.9959 5.01625 27.1923 5.169 27.3581C5.34167 27.5455 5.57879 27.6772 6.05304 27.9407L17.7697 34.4499C18.2187 34.6994 18.4433 34.8241 18.681 34.873C18.8915 34.9163 19.1085 34.9163 19.319 34.873C19.5567 34.8241 19.7813 34.6994 20.2303 34.4499L31.947 27.9407C32.4212 27.6772 32.6583 27.5455 32.831 27.3581C32.9838 27.1923 33.0994 26.9959 33.1701 26.7819C33.25 26.5399 33.25 26.2687 33.25 25.7261Z" stroke="#15151F" stroke-width="2.5" stroke-linecap="round" stroke-linejoin="round"/>
<path d="M26.125 15.3417L11.875 7.42505" stroke="#15151F" stroke-width="2.5" stroke-linecap="round" stroke-linejoin="round"/>
</svg>
