<svg width="40" height="40" viewBox="0 0 40 40" fill="none" xmlns="http://www.w3.org/2000/svg">
<g clip-path="url(#clip0_317_1996)">
<rect width="40" height="40" rx="14" fill="#3ACBCD"/>
<circle cx="7.87262" cy="21.0921" r="41.5381" transform="rotate(-0.403168 7.87262 21.0921)" fill="url(#paint0_linear_317_1996)" stroke="url(#paint1_linear_317_1996)" stroke-width="0.085853"/>
<circle cx="20.0909" cy="50.7747" r="41.5381" transform="rotate(-0.403168 20.0909 50.7747)" fill="url(#paint2_linear_317_1996)" stroke="url(#paint3_radial_317_1996)" stroke-width="0.085853"/>
<g clip-path="url(#clip1_317_1996)">
<path d="M16 23.2049C18.6597 22.9323 21.3403 22.9323 24 23.2049M9.6411 28.5025C9.67228 28.634 9.72973 28.7578 9.80998 28.8664C9.89024 28.9751 9.99166 29.0664 10.1081 29.1349C10.2246 29.2033 10.3537 29.2475 10.4877 29.2648C10.6217 29.282 10.7578 29.272 10.8878 29.2353C16.8489 27.5894 23.1446 27.5888 29.106 29.2336C29.236 29.2703 29.3721 29.2803 29.506 29.263C29.6399 29.2457 29.769 29.2016 29.8854 29.1332C30.0019 29.0647 30.1033 28.9735 30.1835 28.8649C30.2638 28.7563 30.3212 28.6326 30.3525 28.5012L33.5386 14.9616C33.5812 14.7803 33.5724 14.5907 33.5131 14.4142C33.4539 14.2377 33.3465 14.0812 33.2031 13.9624C33.0597 13.8436 32.886 13.7672 32.7015 13.7418C32.5171 13.7164 32.3292 13.7431 32.159 13.8187L25.836 16.6289C25.6077 16.7304 25.3497 16.7427 25.1127 16.6634C24.8758 16.5842 24.6771 16.4191 24.5557 16.2007L20.8742 9.57393C20.7876 9.41803 20.6609 9.28814 20.5072 9.1977C20.3535 9.10726 20.1784 9.05957 20 9.05957C19.8217 9.05957 19.6466 9.10726 19.4929 9.1977C19.3392 9.28814 19.2125 9.41803 19.1259 9.57393L15.4443 16.2007C15.323 16.4191 15.1243 16.5842 14.8873 16.6634C14.6504 16.7427 14.3923 16.7304 14.164 16.6289L7.8401 13.8183C7.66997 13.7426 7.48212 13.716 7.29768 13.7414C7.11325 13.7668 6.93955 13.8431 6.79616 13.9619C6.65277 14.0806 6.54538 14.237 6.48606 14.4135C6.42675 14.59 6.41788 14.7795 6.46045 14.9607L9.6411 28.5025Z" stroke="white" stroke-width="2" stroke-linecap="round" stroke-linejoin="round"/>
</g>
</g>
<defs>
<linearGradient id="paint0_linear_317_1996" x1="7.87262" y1="-20.4889" x2="7.87262" y2="62.6732" gradientUnits="userSpaceOnUse">
<stop stop-color="#3ACBCD" stop-opacity="0.56"/>
<stop offset="1" stop-color="white" stop-opacity="0.2"/>
</linearGradient>
<linearGradient id="paint1_linear_317_1996" x1="51.4246" y1="16.9581" x2="-44.9089" y2="38.3014" gradientUnits="userSpaceOnUse">
<stop stop-color="#3ACBCD"/>
<stop offset="1" stop-color="#B5C2FB" stop-opacity="0"/>
</linearGradient>
<linearGradient id="paint2_linear_317_1996" x1="20.0909" y1="9.19369" x2="20.0909" y2="92.3558" gradientUnits="userSpaceOnUse">
<stop stop-color="#3ACBCD" stop-opacity="0.5"/>
<stop offset="1" stop-color="#216A6B" stop-opacity="0.08"/>
</linearGradient>
<radialGradient id="paint3_radial_317_1996" cx="0" cy="0" r="1" gradientUnits="userSpaceOnUse" gradientTransform="translate(20.0909 50.7748) rotate(89.968) scale(86.1425)">
<stop offset="0.046875" stop-color="#B5C2FB" stop-opacity="0"/>
<stop offset="1" stop-color="#3ACBCD"/>
</radialGradient>
<clipPath id="clip0_317_1996">
<rect width="40" height="40" rx="14" fill="white"/>
</clipPath>
<clipPath id="clip1_317_1996">
<rect width="32" height="32" fill="white" transform="translate(4 4)"/>
</clipPath>
</defs>
</svg>
