<svg width="41" height="40" viewBox="0 0 41 40" fill="none" xmlns="http://www.w3.org/2000/svg">
<g clip-path="url(#clip0_317_1949)">
<rect x="0.5" width="40" height="40" rx="14" fill="#FFBB2B"/>
<circle cx="8.37262" cy="21.0921" r="41.5381" transform="rotate(-0.403168 8.37262 21.0921)" fill="url(#paint0_linear_317_1949)" stroke="url(#paint1_linear_317_1949)" stroke-width="0.085853"/>
<circle cx="20.5909" cy="50.7747" r="41.5381" transform="rotate(-0.403168 20.5909 50.7747)" fill="url(#paint2_linear_317_1949)" stroke="url(#paint3_radial_317_1949)" stroke-width="0.085853"/>
<g clip-path="url(#clip1_317_1949)">
<path d="M22.5 32.5H18.5" stroke="white" stroke-width="2" stroke-linecap="round" stroke-linejoin="round"/>
<path d="M19.8713 6.47053C17.4972 8.3723 9.55676 15.9717 16.5 28.0002H24.5C31.2988 15.9802 23.4745 8.38305 21.1253 6.47458C20.9483 6.33063 20.7272 6.25172 20.499 6.25098C20.2708 6.25025 20.0493 6.32773 19.8713 6.47053Z" stroke="white" stroke-width="2" stroke-linecap="round" stroke-linejoin="round"/>
<path d="M13.7333 17.9204L9.81454 22.6229C9.71666 22.7404 9.64701 22.8787 9.61096 23.0273C9.57491 23.1759 9.57341 23.3308 9.60658 23.48L11.1519 30.4342C11.1888 30.5999 11.2672 30.7536 11.3799 30.8807C11.4925 31.0077 11.6357 31.104 11.7959 31.1604C11.956 31.2168 12.1279 31.2315 12.2954 31.2031C12.4628 31.1747 12.6202 31.1042 12.7528 30.9981L16.5 28.0004M27.1914 17.8301L31.1854 22.6229C31.2833 22.7404 31.353 22.8787 31.389 23.0273C31.4251 23.1759 31.4266 23.3308 31.3934 23.48L29.848 30.4342C29.8112 30.5999 29.7327 30.7536 29.6201 30.8807C29.5074 31.0077 29.3643 31.104 29.2041 31.1604C29.0439 31.2168 28.872 31.2315 28.7046 31.2031C28.5372 31.1747 28.3798 31.1042 28.2472 30.9981L24.5 28.0004" stroke="white" stroke-width="2" stroke-linecap="round" stroke-linejoin="round"/>
<path d="M20.5 18C21.6046 18 22.5 17.1046 22.5 16C22.5 14.8954 21.6046 14 20.5 14C19.3954 14 18.5 14.8954 18.5 16C18.5 17.1046 19.3954 18 20.5 18Z" fill="white"/>
</g>
</g>
<defs>
<linearGradient id="paint0_linear_317_1949" x1="8.37262" y1="-20.4889" x2="8.37262" y2="62.6732" gradientUnits="userSpaceOnUse">
<stop stop-color="#FEB722"/>
<stop offset="1" stop-color="white" stop-opacity="0.2"/>
</linearGradient>
<linearGradient id="paint1_linear_317_1949" x1="51.9246" y1="16.9581" x2="-44.4089" y2="38.3014" gradientUnits="userSpaceOnUse">
<stop stop-color="#FEB722"/>
<stop offset="1" stop-color="#B5C2FB" stop-opacity="0"/>
</linearGradient>
<linearGradient id="paint2_linear_317_1949" x1="20.5909" y1="9.19369" x2="20.5909" y2="92.3558" gradientUnits="userSpaceOnUse">
<stop stop-color="#FEB722"/>
<stop offset="1" stop-color="#FFEF62" stop-opacity="0.08"/>
</linearGradient>
<radialGradient id="paint3_radial_317_1949" cx="0" cy="0" r="1" gradientUnits="userSpaceOnUse" gradientTransform="translate(20.5909 50.7748) rotate(89.968) scale(86.1425)">
<stop offset="0.046875" stop-color="#B5C2FB" stop-opacity="0"/>
<stop offset="1" stop-color="#FEB722"/>
</radialGradient>
<clipPath id="clip0_317_1949">
<rect x="0.5" width="40" height="40" rx="14" fill="white"/>
</clipPath>
<clipPath id="clip1_317_1949">
<rect width="32" height="32" fill="white" transform="translate(4.5 4)"/>
</clipPath>
</defs>
</svg>
